<svg
  xmlns="http://www.w3.org/2000/svg"
  xmlns:xlink="http://www.w3.org/1999/xlink"
  viewBox="0 0 428 189"
  width="428"
  height="189"
>
  <defs>
    <path d="M214.71 0H429v189.29H214.71V0z" id="b1llI72LWP" />
    <path
      d="M411.71 36.6c2.28 0 4.12 1.84 4.12 4.12v15.56c0 2.28-1.84 4.12-4.12 4.12H310.43a4.12 4.12 0 0 1-4.12-4.12V40.72a4.12 4.12 0 0 1 4.12-4.12h101.28z"
      id="g3dVEevF"
    />
    <path
      d="M294.98 36.6c1.78 0 3.23 1.44 3.23 3.23v17.34c0 1.79-1.45 3.23-3.23 3.23h-47.1a3.23 3.23 0 0 1-3.24-3.23V39.83a3.23 3.23 0 0 1 3.24-3.23h47.1z"
      id="a6imJrG8S"
    />
    <path
      d="M380.52 73.26c2.28 0 4.12 1.85 4.12 4.13v15.56c0 2.28-1.84 4.12-4.12 4.12H279.24a4.12 4.12 0 0 1-4.12-4.12V77.39a4.13 4.13 0 0 1 4.12-4.13h101.28z"
      id="c2DuAl8GvQ"
    />
    <path
      d="M294.98 142.31c1.78 0 3.23 1.45 3.23 3.24v17.33c0 1.79-1.45 3.24-3.23 3.24h-47.1a3.24 3.24 0 0 1-3.24-3.24v-17.33a3.24 3.24 0 0 1 3.24-3.24h47.1z"
      id="b7ZzIyHmG"
    />
    <path
      d="M339.56 106.88c2.28 0 4.13 1.84 4.13 4.12v15.56c0 2.28-1.85 4.13-4.13 4.13h-60.32a4.13 4.13 0 0 1-4.12-4.13V111a4.12 4.12 0 0 1 4.12-4.12h60.32z"
      id="amin7iePI"
    />
    <path
      d="M197 36.6c2.28 0 4.12 1.84 4.12 4.12v15.56c0 2.28-1.84 4.12-4.12 4.12h-82.23c-2.28 0-4.12-1.84-4.12-4.12V40.72c0-2.28 1.84-4.12 4.12-4.12H197z"
      id="be04mHB86"
    />
    <path
      d="M77.94 36.6c2.28 0 4.13 1.84 4.13 4.12v15.56c0 2.28-1.85 4.12-4.13 4.12H17.62a4.12 4.12 0 0 1-4.12-4.12V40.72a4.12 4.12 0 0 1 4.12-4.12h60.32z"
      id="h9cT9ZFFa"
    />
    <text
      id="b4duLT8nJV"
      x="93.33"
      y="25.58"
      font-size="26"
      font-family="Open Sans"
      font-weight="600"
      letter-spacing="0"
      alignment-baseline="before-edge"
      transform="translate(-4.16 4.922)"
      style="line-height:100%"
      dominant-baseline="text-before-edge"
    >
      <tspan
        x="93.33"
        dy="0em"
        alignment-baseline="before-edge"
        dominant-baseline="text-before-edge"
      >
        =
      </tspan>
    </text>
  </defs>
  <use xlink:href="#b1llI72LWP" fill="#0c0b0b" />
  <use xlink:href="#g3dVEevF" fill="#64fd87" />
  <use xlink:href="#a6imJrG8S" fill="#50d2f3" />
  <use xlink:href="#c2DuAl8GvQ" fill="#9e9e9d" />
  <use xlink:href="#b7ZzIyHmG" fill="#50d2f3" />
  <use xlink:href="#amin7iePI" fill="#fa6468" />
  <use xlink:href="#be04mHB86" fill="#9e9e9d" />
  <use xlink:href="#h9cT9ZFFa" fill="#fa6468" />
  <use xlink:href="#b4duLT8nJV" fill="#0b0b0b" id="ag4rQgcZ4" />
</svg>
