<svg
  xmlns="http://www.w3.org/2000/svg"
  xmlns:xlink="http://www.w3.org/1999/xlink"
  viewBox="0 0 428 189"
  width="428"
  height="189"
>
  <defs>
    <path d="M214.71 0H429v189.29H214.71V0z" id="a2gLFD3GYF" />
    <path
      d="M412.06 36.6a4.12 4.12 0 0 1 4.12 4.12v15.56a4.12 4.12 0 0 1-4.12 4.12H310.78c-2.28 0-4.12-1.84-4.12-4.12V40.72c0-2.28 1.84-4.12 4.12-4.12h101.28z"
      id="bhzevf0U4"
    />
    <path
      d="M295.32 36.6a3.23 3.23 0 0 1 3.24 3.23v17.34a3.23 3.23 0 0 1-3.24 3.23h-47.09a3.23 3.23 0 0 1-3.24-3.23V39.83a3.23 3.23 0 0 1 3.24-3.23h47.09z"
      id="bQD8CR8wO"
    />
    <path
      d="M380.87 73.26a4.13 4.13 0 0 1 4.12 4.13v15.56a4.12 4.12 0 0 1-4.12 4.12H279.59c-2.28 0-4.12-1.84-4.12-4.12V77.39c0-2.28 1.84-4.13 4.12-4.13h101.28z"
      id="b6evXV36u2"
    />
    <path
      d="M361.82 107.17c2.28 0 4.12 1.84 4.12 4.12v15.56c0 2.28-1.84 4.13-4.12 4.13h-82.23c-2.28 0-4.12-1.85-4.12-4.13v-15.56c0-2.28 1.84-4.12 4.12-4.12h82.23z"
      id="e1poouqwaC"
    />
    <path
      d="M300.65 149.18l6.01 9.69h-24.04l6.01-9.69 6.01-9.69 6.01 9.69z"
      id="f3ycZKefoO"
    />
    <path
      d="M254.77 124.49l-9.78 5.85.19-12.01.2-12.01 9.59 6.16 9.59 6.16-9.79 5.85z"
      id="ay3GEHDgv"
    />
    <path
      d="M51.27 116.65c-6.53 0-11.82-5.29-11.82-11.81V84.16c0-6.52 5.29-11.81 11.82-11.81h35.28c6.52 0 11.81 5.29 11.81 11.81v20.68c0 6.52-5.29 11.81-11.81 11.81H51.27z"
      id="m2dCqd4RKs"
    />
    <text
      id="b244ZehRmp"
      x="34"
      y="60.4"
      font-size="27"
      font-family="Open Sans"
      letter-spacing="0"
      alignment-baseline="before-edge"
      transform="translate(21.955 14.762)"
      style="line-height:100%"
      dominant-baseline="text-before-edge"
    >
      <tspan
        x="34"
        dy="0em"
        alignment-baseline="before-edge"
        dominant-baseline="text-before-edge"
      >
        ⌘
      </tspan>
    </text>
    <path
      d="M137.73 116.65c-6.52 0-11.81-5.29-11.81-11.81V84.16c0-6.52 5.29-11.81 11.81-11.81h23.01c6.53 0 11.82 5.29 11.82 11.81v20.68c0 6.52-5.29 11.81-11.82 11.81h-23.01z"
      id="gdGBm44M5"
    />
    <text
      id="dKiqQGzj6"
      x="34"
      y="60.4"
      font-size="27"
      font-family="Open Sans"
      letter-spacing="0"
      alignment-baseline="before-edge"
      transform="translate(107.875 14.762)"
      style="line-height:100%"
      dominant-baseline="text-before-edge"
    >
      <tspan
        x="34"
        dy="0em"
        alignment-baseline="before-edge"
        dominant-baseline="text-before-edge"
      >
        S
      </tspan>
    </text>
  </defs>
  <use xlink:href="#a2gLFD3GYF" fill="#0c0b0b" />
  <use xlink:href="#bhzevf0U4" fill="#9e9e9d" />
  <use xlink:href="#bQD8CR8wO" fill="#9e9e9d" />
  <use xlink:href="#b6evXV36u2" fill="#9e9e9d" />
  <use xlink:href="#e1poouqwaC" fill="#ededed" />
  <use xlink:href="#f3ycZKefoO" fill="#fd6464" />
  <use xlink:href="#ay3GEHDgv" fill="#fd6464" />
  <use xlink:href="#m2dCqd4RKs" fill="#0b0b0b" />
  <use
    xlink:href="#m2dCqd4RKs"
    fill-opacity="0"
    stroke="#c4f21f"
    stroke-width="0"
  />
  <use xlink:href="#b244ZehRmp" fill="#ededed" id="bcHvBeMRx" />
  <use xlink:href="#gdGBm44M5" fill="#0b0b0b" />
  <use
    xlink:href="#gdGBm44M5"
    fill-opacity="0"
    stroke="#c4f21f"
    stroke-width="0"
  />
  <g id="b1CglEerCR">
    <use xlink:href="#dKiqQGzj6" fill="#ededed" />
  </g>
</svg>
