<svg
  xmlns="http://www.w3.org/2000/svg"
  xmlns:xlink="http://www.w3.org/1999/xlink"
  width="208"
  height="202"
>
  <defs>
    <path
      d="M180.31 60.51a4.13 4.13 0 0 1 4.12 4.13V80.2a4.12 4.12 0 0 1-4.12 4.12H79.03c-2.28 0-4.12-1.84-4.12-4.12V64.64c0-2.28 1.84-4.13 4.12-4.13h101.28z"
      id="c92PqbmG5"
    />
    <path
      d="M63.57 60.51a3.24 3.24 0 0 1 3.24 3.24v17.34c0 1.78-1.45 3.23-3.24 3.23H16.48c-1.79 0-3.24-1.45-3.24-3.23V63.75a3.24 3.24 0 0 1 3.24-3.24h47.09z"
      id="a2yZAzhcvb"
    />
    <path
      d="M149.12 97.18a4.13 4.13 0 0 1 4.12 4.13v15.56c0 2.27-1.85 4.12-4.12 4.12H47.84a4.12 4.12 0 0 1-4.12-4.12v-15.56c0-2.28 1.84-4.13 4.12-4.13h101.28z"
      id="bDfPg6DkT"
    />
    <path
      d="M196.74 14a4.12 4.12 0 0 1 4.12 4.12v15.57a4.12 4.12 0 0 1-4.12 4.12h-82.23a4.12 4.12 0 0 1-4.12-4.12V18.12a4.12 4.12 0 0 1 4.12-4.12h82.23z"
      id="a1ggZyupbp"
    />
    <path
      d="M63.57 164.28c1.79 0 3.24 1.45 3.24 3.23v17.34a3.24 3.24 0 0 1-3.24 3.24H16.48a3.24 3.24 0 0 1-3.24-3.24v-17.34c0-1.78 1.45-3.23 3.24-3.23h47.09z"
      id="a2fdPLRxfW"
    />
    <path
      d="M77.68 14a4.13 4.13 0 0 1 4.13 4.12v15.57a4.13 4.13 0 0 1-4.13 4.12H17.36c-2.27 0-4.12-1.85-4.12-4.12V18.12c0-2.27 1.85-4.12 4.12-4.12h60.32z"
      id="i2kq4VwsKC"
    />
    <text
      id="acjWvoCdW"
      x="93.33"
      y="25.58"
      font-size="26"
      font-family="Open Sans"
      font-weight="600"
      letter-spacing="0"
      alignment-baseline="before-edge"
      transform="translate(-4.42 -17.673)"
      style="line-height:100%"
      dominant-baseline="text-before-edge"
    >
      <tspan
        x="93.33"
        dy="0em"
        alignment-baseline="before-edge"
        dominant-baseline="text-before-edge"
      >
        =
      </tspan>
    </text>
    <path
      d="M108.16 128.67c2.28 0 4.12 1.85 4.12 4.13v15.56c0 2.28-1.84 4.12-4.12 4.12H47.84c-2.28 0-4.12-1.84-4.12-4.12V132.8c0-2.28 1.84-4.13 4.12-4.13h60.32z"
      id="a2e0tjlm6G"
    />
  </defs>
  <use xlink:href="#c92PqbmG5" fill="#9e9e9d" />
  <use xlink:href="#a2yZAzhcvb" fill="#9e9e9d" />
  <use xlink:href="#bDfPg6DkT" fill="#9e9e9d" />
  <use xlink:href="#a1ggZyupbp" fill="#9e9e9d" />
  <use xlink:href="#a2fdPLRxfW" fill="#9e9e9d" />
  <use xlink:href="#i2kq4VwsKC" fill="#64fd87" />
  <use xlink:href="#acjWvoCdW" fill="#50d2f3" id="c6rdShIeqE" />
  <use xlink:href="#a2e0tjlm6G" fill="#64fd87" />
</svg>
