<svg
  xmlns="http://www.w3.org/2000/svg"
  xmlns:xlink="http://www.w3.org/1999/xlink"
  width="428"
  height="189"
>
  <defs>
    <path d="M214.4.36h214.29v189.28H214.4V.36z" id="aD01RccQ4" />
    <path
      d="M180.4 36.95c2.28 0 4.12 1.85 4.12 4.13v15.56c0 2.28-1.84 4.12-4.12 4.12H79.12A4.12 4.12 0 0 1 75 56.64V41.08a4.13 4.13 0 0 1 4.12-4.13H180.4z"
      id="c4IuzseMwH"
    />
    <path
      d="M63.67 36.95a3.23 3.23 0 0 1 3.23 3.24v17.33a3.23 3.23 0 0 1-3.23 3.24h-47.1a3.24 3.24 0 0 1-3.24-3.24V40.19a3.24 3.24 0 0 1 3.24-3.24h47.1z"
      id="ceXRtBQRg"
    />
    <path
      d="M149.21 73.62a4.12 4.12 0 0 1 4.12 4.12V93.3c0 2.28-1.84 4.13-4.12 4.13H47.93a4.13 4.13 0 0 1-4.12-4.13V77.74c0-2.27 1.85-4.12 4.12-4.12h101.28z"
      id="b1U6Jno75"
    />
    <path
      d="M130.16 105.52c2.28 0 4.13 1.85 4.13 4.13v15.56c0 2.28-1.85 4.12-4.13 4.12H47.93a4.12 4.12 0 0 1-4.12-4.12v-15.56a4.13 4.13 0 0 1 4.12-4.13h82.23z"
      id="a3RkbNkE1V"
    />
    <path
      d="M63.67 142.67c1.79 0 3.23 1.45 3.23 3.23v17.34a3.23 3.23 0 0 1-3.23 3.24h-47.1a3.24 3.24 0 0 1-3.24-3.24V145.9c0-1.78 1.45-3.23 3.24-3.23h47.1z"
      id="d4d8t3QOgV"
    />
    <path
      d="M411.4 36.95c2.28 0 4.12 1.85 4.12 4.13v15.56c0 2.28-1.84 4.12-4.12 4.12H310.12a4.12 4.12 0 0 1-4.12-4.12V41.08a4.13 4.13 0 0 1 4.12-4.13H411.4z"
      id="c6R7SUtMxA"
    />
    <path
      d="M294.67 36.95a3.23 3.23 0 0 1 3.23 3.24v17.33a3.23 3.23 0 0 1-3.23 3.24h-47.1a3.24 3.24 0 0 1-3.24-3.24V40.19a3.24 3.24 0 0 1 3.24-3.24h47.1z"
      id="aB7a4guuK"
    />
    <path
      d="M380.21 73.62a4.12 4.12 0 0 1 4.12 4.12V93.3c0 2.28-1.84 4.13-4.12 4.13H278.93a4.13 4.13 0 0 1-4.12-4.13V77.74c0-2.27 1.85-4.12 4.12-4.12h101.28z"
      id="a9zjGAVJt"
    />
    <path
      d="M361.16 105.52c2.28 0 4.13 1.85 4.13 4.13v15.56c0 2.28-1.85 4.12-4.13 4.12h-82.23a4.12 4.12 0 0 1-4.12-4.12v-15.56a4.13 4.13 0 0 1 4.12-4.13h82.23z"
      id="c1ANaYzZY8"
    />
    <path
      d="M294.67 142.67c1.79 0 3.23 1.45 3.23 3.23v17.34a3.23 3.23 0 0 1-3.23 3.24h-47.1a3.24 3.24 0 0 1-3.24-3.24V145.9c0-1.78 1.45-3.23 3.24-3.23h47.1z"
      id="c1lDyfUVSE"
    />
    <text
      id="a7KzfwkCDJ"
      x="155.71"
      y="29.52"
      font-size="15"
      font-family="Open Sans"
      font-weight="600"
      letter-spacing="0"
      alignment-baseline="before-edge"
      transform="translate(7.747 -21.19)"
      style="line-height:100%"
      dominant-baseline="text-before-edge"
    >
      <tspan
        x="155.71"
        dy="0em"
        alignment-baseline="before-edge"
        dominant-baseline="text-before-edge"
      >
        .html
      </tspan>
    </text>
    <text
      id="b9cuWlHBt3"
      x="155.71"
      y="29.52"
      font-size="15"
      font-family="Open Sans"
      font-weight="600"
      letter-spacing="0"
      alignment-baseline="before-edge"
      transform="translate(236.903 -21.19)"
      style="line-height:100%"
      dominant-baseline="text-before-edge"
    >
      <tspan
        x="155.71"
        dy="0em"
        alignment-baseline="before-edge"
        dominant-baseline="text-before-edge"
      >
        .iss
      </tspan>
    </text>
  </defs>
  <use xlink:href="#aD01RccQ4" fill="#0c0b0b" />
  <use xlink:href="#c4IuzseMwH" fill="#64fd87" />
  <use xlink:href="#ceXRtBQRg" fill="#50d2f3" />
  <use xlink:href="#b1U6Jno75" fill="#9e9e9d" />
  <use xlink:href="#a3RkbNkE1V" fill="#9e9e9d" />
  <use xlink:href="#d4d8t3QOgV" fill="#50d2f3" />
  <use xlink:href="#c6R7SUtMxA" fill="#64fd87" />
  <use xlink:href="#aB7a4guuK" fill="#50d2f3" />
  <use xlink:href="#a9zjGAVJt" fill="#9e9e9d" />
  <use xlink:href="#c1ANaYzZY8" fill="#9e9e9d" />
  <use xlink:href="#c1lDyfUVSE" fill="#50d2f3" />
  <use xlink:href="#a7KzfwkCDJ" fill="#232221" id="exPiWqsSD" />
  <use xlink:href="#b9cuWlHBt3" fill="#f6fd64" id="aROLHoOyT" />
</svg>
