<svg xmlns="http://www.w3.org/2000/svg" xmlns:xlink="http://www.w3.org/1999/xlink" width="201" height="152"><defs><path d="M182.03 15.76a4.13 4.13 0 0 1 4.12 4.13v15.56a4.12 4.12 0 0 1-4.12 4.12H80.75c-2.28 0-4.12-1.84-4.12-4.12V19.89c0-2.28 1.84-4.13 4.12-4.13h101.28z" id="a"/><path d="M65.29 15.76A3.24 3.24 0 0 1 68.53 19v17.34c0 1.78-1.45 3.23-3.24 3.23H18.2c-1.79 0-3.24-1.45-3.24-3.23V19a3.24 3.24 0 0 1 3.24-3.24h47.09z" id="b"/><path d="M150.83 52.43c2.28 0 4.13 1.85 4.13 4.13v15.56a4.13 4.13 0 0 1-4.13 4.12H49.56a4.13 4.13 0 0 1-4.13-4.12V56.56c0-2.28 1.85-4.13 4.13-4.13h101.27z" id="c"/><path d="M131.79 84.34a4.12 4.12 0 0 1 4.12 4.12v15.56a4.13 4.13 0 0 1-4.12 4.13H49.56c-2.28 0-4.13-1.85-4.13-4.13V88.46c0-2.28 1.85-4.12 4.13-4.12h82.23z" id="d"/><path d="M70.62 128.34l6.01 9.69H52.59l6.01-9.69 6.01-9.68 6.01 9.68z" id="e"/><path d="M24.74 100.66l-9.78 5.85.19-12.01.2-12.01 9.59 6.16 9.59 6.16-9.79 5.85z" id="f"/></defs><use xlink:href="#a" fill="#9e9e9d"/><use xlink:href="#b" fill="#9e9e9d"/><use xlink:href="#c" fill="#9e9e9d"/><use xlink:href="#d" fill="#ededed"/><use xlink:href="#e" fill="#fd6464"/><use xlink:href="#f" fill="#fd6464"/></svg>