<svg
  xmlns="http://www.w3.org/2000/svg"
  xmlns:xlink="http://www.w3.org/1999/xlink"
  viewBox="0 0 171.591 130.772"
  width="171.59"
  height="130.77"
>
  <defs>
    <path
      d="M167.4.95c2.28 0 4.12 1.85 4.12 4.13v15.56c0 2.28-1.84 4.12-4.12 4.12H66.12A4.12 4.12 0 0 1 62 20.64V5.08A4.13 4.13 0 0 1 66.12.95H167.4z"
      id="a"
    />
    <path
      d="M50.67.95a3.23 3.23 0 0 1 3.23 3.24v17.33a3.23 3.23 0 0 1-3.23 3.24H3.57a3.24 3.24 0 0 1-3.24-3.24V4.19A3.24 3.24 0 0 1 3.57.95h47.1z"
      id="b"
    />
    <path
      d="M136.21 37.62a4.12 4.12 0 0 1 4.12 4.12V57.3c0 2.28-1.84 4.13-4.12 4.13H34.93a4.13 4.13 0 0 1-4.12-4.13V41.74c0-2.27 1.85-4.12 4.12-4.12h101.28z"
      id="c"
    />
    <path
      d="M117.16 69.52c2.28 0 4.13 1.85 4.13 4.13v15.56c0 2.28-1.85 4.12-4.13 4.12H34.93a4.12 4.12 0 0 1-4.12-4.12V73.65a4.13 4.13 0 0 1 4.12-4.13h82.23z"
      id="d"
    />
    <path
      d="M50.67 106.67c1.79 0 3.23 1.45 3.23 3.23v17.34a3.23 3.23 0 0 1-3.23 3.24H3.57a3.24 3.24 0 0 1-3.24-3.24V109.9c0-1.78 1.45-3.23 3.24-3.23h47.1z"
      id="e"
    />
  </defs>
  <use xlink:href="#a" fill="#64fd87" />
  <use xlink:href="#b" fill="#50d2f3" />
  <use xlink:href="#c" fill="#9e9e9d" />
  <use xlink:href="#d" fill="#9e9e9d" />
  <use xlink:href="#e" fill="#50d2f3" />
</svg>
