<svg
  xmlns="http://www.w3.org/2000/svg"
  xmlns:xlink="http://www.w3.org/1999/xlink"
  width="428"
  height="189"
>
  <defs>
    <path d="M214.4.36h214.29v189.28H214.4V.36z" id="b1RWuWHm0b" />
    <path
      d="M152.88 76.18A4.12 4.12 0 0 1 157 80.3v15.56a4.13 4.13 0 0 1-4.12 4.13H51.6c-2.28 0-4.12-1.85-4.12-4.13V80.3c0-2.28 1.84-4.12 4.12-4.12h101.28z"
      id="b5tN267zGk"
    />
    <path
      d="M372.19 41.97c2.27 0 4.12 1.85 4.12 4.12v15.56a4.13 4.13 0 0 1-4.12 4.13H270.91c-2.28 0-4.12-1.85-4.12-4.13V46.09a4.12 4.12 0 0 1 4.12-4.12h101.28z"
      id="bhwiLekBx"
    />
    <text
      id="eFwFYVeWo"
      x="155.71"
      y="29.52"
      font-size="15"
      font-family="Open Sans"
      font-weight="600"
      letter-spacing="0"
      alignment-baseline="before-edge"
      transform="translate(20.216 -22.19)"
      style="line-height:100%"
      dominant-baseline="text-before-edge"
    >
      <tspan
        x="155.71"
        dy="0em"
        alignment-baseline="before-edge"
        dominant-baseline="text-before-edge"
      >
        .css
      </tspan>
    </text>
    <text
      id="akoGNoSyR"
      x="155.71"
      y="29.52"
      font-size="15"
      font-family="Open Sans"
      font-weight="600"
      letter-spacing="0"
      alignment-baseline="before-edge"
      transform="translate(237.044 -21.19)"
      style="line-height:100%"
      dominant-baseline="text-before-edge"
    >
      <tspan
        x="155.71"
        dy="0em"
        alignment-baseline="before-edge"
        dominant-baseline="text-before-edge"
      >
        .iss
      </tspan>
    </text>
    <path
      d="M152.88 41.97c2.27 0 4.12 1.85 4.12 4.12v15.56a4.13 4.13 0 0 1-4.12 4.13H51.6c-2.28 0-4.12-1.85-4.12-4.13V46.09a4.12 4.12 0 0 1 4.12-4.12h101.28z"
      id="c6pIoR6QSz"
    />
    <path
      d="M152.88 110.48c2.27 0 4.12 1.85 4.12 4.12v15.57c0 2.27-1.85 4.12-4.12 4.12H51.6a4.12 4.12 0 0 1-4.12-4.12V114.6a4.12 4.12 0 0 1 4.12-4.12h101.28z"
      id="cB6ywteS3"
    />
    <path
      d="M152.88 143.79a4.12 4.12 0 0 1 4.12 4.12v15.56a4.12 4.12 0 0 1-4.12 4.12H51.6c-2.28 0-4.12-1.84-4.12-4.12v-15.56c0-2.28 1.84-4.12 4.12-4.12h101.28z"
      id="bdaqEEOiy"
    />
    <path d="M31.34 85.62h141.8v4.92H31.34v-4.92z" id="fMLVkeliB" />
    <path d="M31.34 119.93h141.8v4.91H31.34v-4.91z" id="a1A1O7EOZW" />
    <path d="M31.34 153.23h141.8v4.92H31.34v-4.92z" id="agfup4Qse" />
  </defs>
  <use xlink:href="#b1RWuWHm0b" fill="#0c0b0b" />
  <use xlink:href="#b5tN267zGk" fill="#ededed" />
  <use xlink:href="#bhwiLekBx" fill="#9e9e9d" />
  <use xlink:href="#eFwFYVeWo" fill="#232221" id="e2EmJfq47g" />
  <use xlink:href="#akoGNoSyR" fill="#f6fd64" id="b84oxw7lD" />
  <use xlink:href="#c6pIoR6QSz" fill="#9e9e9d" />
  <use xlink:href="#cB6ywteS3" fill="#ededed" />
  <use xlink:href="#bdaqEEOiy" fill="#ededed" />
  <use xlink:href="#fMLVkeliB" fill="#fd6464" />
  <use xlink:href="#a1A1O7EOZW" fill="#fd6464" />
  <use xlink:href="#agfup4Qse" fill="#fd6464" />
</svg>
